<?xml version="1.0" standalone="no"?>
<!DOCTYPE svg PUBLIC "-//W3C//DTD SVG 20010904//EN"
 "http://www.w3.org/TR/2001/REC-SVG-20010904/DTD/svg10.dtd">
<svg version="1.0" xmlns="http://www.w3.org/2000/svg"
 width="92.000000pt" height="92.000000pt" viewBox="0 0 92.000000 92.000000"
 preserveAspectRatio="xMidYMid meet">
<metadata>
Created by potrace 1.14, written by Peter Selinger 2001-2017
</metadata>
<g transform="translate(0.000000,92.000000) scale(0.100000,-0.100000)"
fill="#000000" stroke="none">
<path d="M373 658 c-51 -123 -95 -230 -98 -239 -5 -13 3 -17 37 -22 24 -3 51
-9 60 -12 17 -7 28 11 74 127 10 27 21 48 24 48 3 0 28 -57 55 -128 48 -120
53 -128 85 -138 44 -15 110 -24 110 -15 0 12 -245 601 -250 601 -3 0 -47 -100
-97 -222z"/>
<path d="M71 372 c-82 -22 -92 -41 -19 -38 82 4 140 -11 297 -73 172 -69 224
-82 307 -82 96 0 209 36 248 80 28 30 16 34 -47 16 -57 -16 -161 -21 -212 -10
-44 10 -83 24 -152 55 -98 46 -162 61 -263 65 -67 2 -114 -1 -159 -13z"/>
<path d="M213 273 c-3 -10 -14 -36 -23 -58 -40 -91 -70 -165 -70 -173 0 -4 30
-7 67 -7 l68 0 43 104 c23 57 41 105 40 106 -9 5 -108 45 -113 45 -3 0 -8 -8
-12 -17z"/>
<path d="M683 162 c-24 -2 -43 -7 -43 -11 0 -4 10 -32 23 -62 l22 -54 68 0
c37 0 67 2 67 5 0 3 -12 33 -26 67 -22 51 -31 62 -48 60 -12 -1 -40 -3 -63 -5z"/>
</g>
</svg>
